<svg aria-roledescription="er" viewBox="-0.16870880126953125 0 1088.309326171875 607.28515625" style="max-width: 1088.31px; background-color: white;" xmlns:xlink="http://www.w3.org/1999/xlink" xmlns="http://www.w3.org/2000/svg" width="100%" id="mermaid-0"><style>#mermaid-0{font-family:"trebuchet ms",verdana,arial,sans-serif;font-size:16px;fill:#000000;}#mermaid-0 .error-icon{fill:#552222;}#mermaid-0 .error-text{fill:#552222;stroke:#552222;}#mermaid-0 .edge-thickness-normal{stroke-width:2px;}#mermaid-0 .edge-thickness-thick{stroke-width:3.5px;}#mermaid-0 .edge-pattern-solid{stroke-dasharray:0;}#mermaid-0 .edge-pattern-dashed{stroke-dasharray:3;}#mermaid-0 .edge-pattern-dotted{stroke-dasharray:2;}#mermaid-0 .marker{fill:#000000;stroke:#000000;}#mermaid-0 .marker.cross{stroke:#000000;}#mermaid-0 svg{font-family:"trebuchet ms",verdana,arial,sans-serif;font-size:16px;}#mermaid-0 .entityBox{fill:#cde498;stroke:#13540c;}#mermaid-0 .attributeBoxOdd{fill:#ffffff;stroke:#13540c;}#mermaid-0 .attributeBoxEven{fill:#f2f2f2;stroke:#13540c;}#mermaid-0 .relationshipLabelBox{fill:hsl(78.1578947368, 58.4615384615%, 84.5098039216%);opacity:0.7;background-color:hsl(78.1578947368, 58.4615384615%, 84.5098039216%);}#mermaid-0 .relationshipLabelBox rect{opacity:0.5;}#mermaid-0 .relationshipLine{stroke:#000000;}#mermaid-0 .entityTitleText{text-anchor:middle;font-size:18px;fill:#000000;}#mermaid-0 :root{--mermaid-font-family:"trebuchet ms",verdana,arial,sans-serif;}</style><g/><defs><marker orient="auto" markerHeight="18" markerWidth="18" refY="9" refX="0" id="ONLY_ONE_START"><path d="M9,0 L9,18 M15,0 L15,18" fill="none" stroke="gray"/></marker></defs><defs><marker orient="auto" markerHeight="18" markerWidth="18" refY="9" refX="18" id="ONLY_ONE_END"><path d="M3,0 L3,18 M9,0 L9,18" fill="none" stroke="gray"/></marker></defs><defs><marker orient="auto" markerHeight="18" markerWidth="30" refY="9" refX="0" id="ZERO_OR_ONE_START"><circle r="6" cy="9" cx="21" fill="white" stroke="gray"/><path d="M9,0 L9,18" fill="none" stroke="gray"/></marker></defs><defs><marker orient="auto" markerHeight="18" markerWidth="30" refY="9" refX="30" id="ZERO_OR_ONE_END"><circle r="6" cy="9" cx="9" fill="white" stroke="gray"/><path d="M21,0 L21,18" fill="none" stroke="gray"/></marker></defs><defs><marker orient="auto" markerHeight="36" markerWidth="45" refY="18" refX="18" id="ONE_OR_MORE_START"><path d="M0,18 Q 18,0 36,18 Q 18,36 0,18 M42,9 L42,27" fill="none" stroke="gray"/></marker></defs><defs><marker orient="auto" markerHeight="36" markerWidth="45" refY="18" refX="27" id="ONE_OR_MORE_END"><path d="M3,9 L3,27 M9,18 Q27,0 45,18 Q27,36 9,18" fill="none" stroke="gray"/></marker></defs><defs><marker orient="auto" markerHeight="36" markerWidth="57" refY="18" refX="18" id="ZERO_OR_MORE_START"><circle r="6" cy="18" cx="48" fill="white" stroke="gray"/><path d="M0,18 Q18,0 36,18 Q18,36 0,18" fill="none" stroke="gray"/></marker></defs><defs><marker orient="auto" markerHeight="36" markerWidth="57" refY="18" refX="39" id="ZERO_OR_MORE_END"><circle r="6" cy="18" cx="9" fill="white" stroke="gray"/><path d="M21,18 Q39,0 57,18 Q39,36 21,18" fill="none" stroke="gray"/></marker></defs><path style="stroke: gray; fill: none;" marker-start="url(#ZERO_OR_ONE_START)" marker-end="url(#ZERO_OR_ONE_END)" d="M451.8203125,184.59819536509485L435.7102864583333,195.2110612417457C419.6002604166667,205.82392711839657,387.3802083333333,227.04965887169828,363.6011580835975,264.40568881084914C339.82210783386176,301.76171875,324.48405941772353,355.248046875,316.8150352096544,381.9912109375L309.1460110015853,408.734375" class="er relationshipLine"/><path style="stroke: gray; fill: none;" marker-start="url(#ZERO_OR_ONE_START)" marker-end="url(#ZERO_OR_ONE_END)" d="M451.8203125,146.56647437976739L399.9420572916667,163.5179604206395C348.0638020833333,180.46944646151158,244.30729166666666,214.3724185432558,184.34001246521552,258.0670686466279C124.37273326376442,301.76171875,108.19468527752883,355.248046875,100.10566128441104,381.9912109375L92.01663729129325,408.734375" class="er relationshipLine"/><path style="stroke: gray; fill: none;" marker-start="url(#ZERO_OR_ONE_START)" marker-end="url(#ZERO_OR_ONE_END)" d="M665.9422458317833,198.275390625L675.2513506931527,206.60872395833334C684.5604555545223,214.94205729166666,703.1786652772611,231.60872395833334,712.4877701386305,263.0262044270833C721.796875,294.4436848958333,721.796875,340.6119791666667,721.796875,363.6961263020833L721.796875,386.7802734375" class="er relationshipLine"/><path style="stroke: gray; fill: none;" marker-start="url(#ZERO_OR_ONE_START)" marker-end="url(#ZERO_OR_ONE_END)" d="M566.3671875,198.275390625L566.3671875,206.60872395833334C566.3671875,214.94205729166666,566.3671875,231.60872395833334,558.7437837685392,266.69287109375C551.1203800370782,301.7770182291667,535.8735725741566,355.2786458333333,528.2501688426958,382.0294596354167L520.6267651112349,408.7802734375" class="er relationshipLine"/><path style="stroke: gray; fill: none;" marker-start="url(#ZERO_OR_MORE_START)" marker-end="url(#ONLY_ONE_END)" d="M680.9140625,148.3714374259272L729.52734375,165.02209629243933C778.140625,181.67275515895145,875.3671875,214.97407289197574,923.98046875,239.95806509182123C972.59375,264.9420572916667,972.59375,281.6087239583333,972.59375,289.9420572916667L972.59375,298.275390625" class="er relationshipLine"/><path style="stroke: gray; fill: none;" marker-start="url(#ZERO_OR_ONE_START)" marker-end="url(#ONLY_ONE_END)" d="M148.55859375,170.42896791513323L129.08528645833334,183.40337170011102C109.61197916666667,196.37777548508882,70.66536458333333,222.32658305504438,58.066734080187196,262.0441509025222C45.46810357704106,301.76171875,59.217457154082126,355.248046875,66.09213394260266,381.9912109375L72.96681073112319,408.734375" class="er relationshipLine"/><path style="stroke: gray; fill: none;" marker-start="url(#ZERO_OR_ONE_START)" marker-end="url(#ONLY_ONE_END)" d="M240.55078125,176.2294921875L240.55078125,188.23714192708334C240.55078125,200.24479166666666,240.55078125,224.26009114583334,248.63980524311782,263.0109049479167C256.7288292362356,301.76171875,272.90687722247117,355.248046875,280.99590121558896,381.9912109375L289.08492520870675,408.734375" class="er relationshipLine"/><path style="stroke: gray; fill: none;" marker-start="url(#ZERO_OR_ONE_START)" marker-end="url(#ONLY_ONE_END)" d="M332.54296875,168.77898989949261L352.9791666666667,182.0283900204105C373.4153645833333,195.2777901413284,414.2877604166667,221.77659038316423,442.39517622491394,261.77680430616545C470.5025920331613,301.7770182291667,485.84502781632256,355.2786458333333,493.5162457079032,382.0294596354167L501.18746359948386,408.7802734375" class="er relationshipLine"/><g transform="translate(20,408.734375 )" id="entity-MetricService-ead0dff2-77bd-44b0-b727-f77182743539"><rect height="68.091796875" width="123.4375" y="0" x="0" class="er entityBox"/><text style="dominant-baseline: middle; text-anchor: middle; font-size: 12px;" transform="translate(61.71875,12)" y="0" x="0" id="text-entity-MetricService-ead0dff2-77bd-44b0-b727-f77182743539" class="er entityLabel">MetricService</text><rect height="22.091796875" width="61.71875" y="24" x="0" class="er attributeBoxOdd"/><text style="dominant-baseline: middle; font-size: 10.2px;" transform="translate(5,35.0458984375)" y="0" x="0" id="text-entity-MetricService-ead0dff2-77bd-44b0-b727-f77182743539-attr-1-type" class="er entityLabel">Application</text><rect height="22.091796875" width="61.71875" y="24" x="61.71875" class="er attributeBoxOdd"/><text style="dominant-baseline: middle; font-size: 10.2px;" transform="translate(66.71875,35.0458984375)" y="0" x="0" id="text-entity-MetricService-ead0dff2-77bd-44b0-b727-f77182743539-attr-1-name" class="er entityLabel">Application</text><rect height="22" width="61.71875" y="46.091796875" x="0" class="er attributeBoxEven"/><text style="dominant-baseline: middle; font-size: 10.2px;" transform="translate(5,57.091796875)" y="0" x="0" id="text-entity-MetricService-ead0dff2-77bd-44b0-b727-f77182743539-attr-2-type" class="er entityLabel">Database</text><rect height="22" width="61.71875" y="46.091796875" x="61.71875" class="er attributeBoxEven"/><text style="dominant-baseline: middle; font-size: 10.2px;" transform="translate(66.71875,57.091796875)" y="0" x="0" id="text-entity-MetricService-ead0dff2-77bd-44b0-b727-f77182743539-attr-2-name" class="er entityLabel">Database</text></g><g transform="translate(243.4375,408.734375 )" id="entity-MetricResource-613cf778-9845-438c-9eb2-eea0a19769e9"><rect height="68.091796875" width="111.890625" y="0" x="0" class="er entityBox"/><text style="dominant-baseline: middle; text-anchor: middle; font-size: 12px;" transform="translate(55.9453125,12)" y="0" x="0" id="text-entity-MetricResource-613cf778-9845-438c-9eb2-eea0a19769e9" class="er entityLabel">MetricResource</text><rect height="22" width="55.9453125" y="24" x="0" class="er attributeBoxOdd"/><text style="dominant-baseline: middle; font-size: 10.2px;" transform="translate(5,35)" y="0" x="0" id="text-entity-MetricResource-613cf778-9845-438c-9eb2-eea0a19769e9-attr-1-type" class="er entityLabel">CPU</text><rect height="22" width="55.9453125" y="24" x="55.9453125" class="er attributeBoxOdd"/><text style="dominant-baseline: middle; font-size: 10.2px;" transform="translate(60.9453125,35)" y="0" x="0" id="text-entity-MetricResource-613cf778-9845-438c-9eb2-eea0a19769e9-attr-1-name" class="er entityLabel">CPU</text><rect height="22.091796875" width="55.9453125" y="46" x="0" class="er attributeBoxEven"/><text style="dominant-baseline: middle; font-size: 10.2px;" transform="translate(5,57.0458984375)" y="0" x="0" id="text-entity-MetricResource-613cf778-9845-438c-9eb2-eea0a19769e9-attr-2-type" class="er entityLabel">Memory</text><rect height="22.091796875" width="55.9453125" y="46" x="55.9453125" class="er attributeBoxEven"/><text style="dominant-baseline: middle; font-size: 10.2px;" transform="translate(60.9453125,57.0458984375)" y="0" x="0" id="text-entity-MetricResource-613cf778-9845-438c-9eb2-eea0a19769e9-attr-2-name" class="er entityLabel">Memory</text></g><g transform="translate(455.328125,408.7802734375 )" id="entity-QuiverProducts-fcae2bd3-6ec9-4795-8a28-c68c41530261"><rect height="68" width="111.21875" y="0" x="0" class="er entityBox"/><text style="dominant-baseline: middle; text-anchor: middle; font-size: 12px;" transform="translate(55.609375,12)" y="0" x="0" id="text-entity-QuiverProducts-fcae2bd3-6ec9-4795-8a28-c68c41530261" class="er entityLabel">QuiverProducts</text><rect height="22" width="55.609375" y="24" x="0" class="er attributeBoxOdd"/><text style="dominant-baseline: middle; font-size: 10.2px;" transform="translate(5,35)" y="0" x="0" id="text-entity-QuiverProducts-fcae2bd3-6ec9-4795-8a28-c68c41530261-attr-1-type" class="er entityLabel">PRO</text><rect height="22" width="55.609375" y="24" x="55.609375" class="er attributeBoxOdd"/><text style="dominant-baseline: middle; font-size: 10.2px;" transform="translate(60.609375,35)" y="0" x="0" id="text-entity-QuiverProducts-fcae2bd3-6ec9-4795-8a28-c68c41530261-attr-1-name" class="er entityLabel">PRO</text><rect height="22" width="55.609375" y="46" x="0" class="er attributeBoxEven"/><text style="dominant-baseline: middle; font-size: 10.2px;" transform="translate(5,57)" y="0" x="0" id="text-entity-QuiverProducts-fcae2bd3-6ec9-4795-8a28-c68c41530261-attr-2-type" class="er entityLabel">PLUS</text><rect height="22" width="55.609375" y="46" x="55.609375" class="er attributeBoxEven"/><text style="dominant-baseline: middle; font-size: 10.2px;" transform="translate(60.609375,57)" y="0" x="0" id="text-entity-QuiverProducts-fcae2bd3-6ec9-4795-8a28-c68c41530261-attr-2-name" class="er entityLabel">PLUS</text></g><g transform="translate(666.546875,386.7802734375 )" id="entity-Periods-ac079b84-33b2-49e0-93fc-6eb1a00bdcbe"><rect height="112" width="110.5" y="0" x="0" class="er entityBox"/><text style="dominant-baseline: middle; text-anchor: middle; font-size: 12px;" transform="translate(55.25,12)" y="0" x="0" id="text-entity-Periods-ac079b84-33b2-49e0-93fc-6eb1a00bdcbe" class="er entityLabel">Periods</text><rect height="22" width="55.25" y="24" x="0" class="er attributeBoxOdd"/><text style="dominant-baseline: middle; font-size: 10.2px;" transform="translate(5,35)" y="0" x="0" id="text-entity-Periods-ac079b84-33b2-49e0-93fc-6eb1a00bdcbe-attr-1-type" class="er entityLabel">DIA</text><rect height="22" width="55.25" y="24" x="55.25" class="er attributeBoxOdd"/><text style="dominant-baseline: middle; font-size: 10.2px;" transform="translate(60.25,35)" y="0" x="0" id="text-entity-Periods-ac079b84-33b2-49e0-93fc-6eb1a00bdcbe-attr-1-name" class="er entityLabel">DIA</text><rect height="22" width="55.25" y="46" x="0" class="er attributeBoxEven"/><text style="dominant-baseline: middle; font-size: 10.2px;" transform="translate(5,57)" y="0" x="0" id="text-entity-Periods-ac079b84-33b2-49e0-93fc-6eb1a00bdcbe-attr-2-type" class="er entityLabel">NORMAL</text><rect height="22" width="55.25" y="46" x="55.25" class="er attributeBoxEven"/><text style="dominant-baseline: middle; font-size: 10.2px;" transform="translate(60.25,57)" y="0" x="0" id="text-entity-Periods-ac079b84-33b2-49e0-93fc-6eb1a00bdcbe-attr-2-name" class="er entityLabel">NORMAL</text><rect height="22" width="55.25" y="68" x="0" class="er attributeBoxOdd"/><text style="dominant-baseline: middle; font-size: 10.2px;" transform="translate(5,79)" y="0" x="0" id="text-entity-Periods-ac079b84-33b2-49e0-93fc-6eb1a00bdcbe-attr-3-type" class="er entityLabel">PICO</text><rect height="22" width="55.25" y="68" x="55.25" class="er attributeBoxOdd"/><text style="dominant-baseline: middle; font-size: 10.2px;" transform="translate(60.25,79)" y="0" x="0" id="text-entity-Periods-ac079b84-33b2-49e0-93fc-6eb1a00bdcbe-attr-3-name" class="er entityLabel">PICO</text><rect height="22" width="55.25" y="90" x="0" class="er attributeBoxEven"/><text style="dominant-baseline: middle; font-size: 10.2px;" transform="translate(5,101)" y="0" x="0" id="text-entity-Periods-ac079b84-33b2-49e0-93fc-6eb1a00bdcbe-attr-4-type" class="er entityLabel">NOTURNO</text><rect height="22" width="55.25" y="90" x="55.25" class="er attributeBoxEven"/><text style="dominant-baseline: middle; font-size: 10.2px;" transform="translate(60.25,101)" y="0" x="0" id="text-entity-Periods-ac079b84-33b2-49e0-93fc-6eb1a00bdcbe-attr-4-name" class="er entityLabel">NOTURNO</text></g><g transform="translate(451.8203125,20 )" id="entity-metrics-0fc12ac2-0e0d-4f13-af9c-e40c0c58ba2d"><rect height="178.27539253234863" width="229.09375" y="0" x="0" class="er entityBox"/><text style="dominant-baseline: middle; text-anchor: middle; font-size: 12px;" transform="translate(114.546875,12)" y="0" x="0" id="text-entity-metrics-0fc12ac2-0e0d-4f13-af9c-e40c0c58ba2d" class="er entityLabel">metrics</text><rect height="22" width="79.609375" y="24" x="0" class="er attributeBoxOdd"/><text style="dominant-baseline: middle; font-size: 10.2px;" transform="translate(5,35)" y="0" x="0" id="text-entity-metrics-0fc12ac2-0e0d-4f13-af9c-e40c0c58ba2d-attr-1-type" class="er entityLabel">Int</text><rect height="22" width="81.140625" y="24" x="79.609375" class="er attributeBoxOdd"/><text style="dominant-baseline: middle; font-size: 10.2px;" transform="translate(84.609375,35)" y="0" x="0" id="text-entity-metrics-0fc12ac2-0e0d-4f13-af9c-e40c0c58ba2d-attr-1-name" class="er entityLabel">id</text><rect height="22" width="21.5625" y="24" x="160.75" class="er attributeBoxOdd"/><text style="dominant-baseline: middle; font-size: 10.2px;" transform="translate(165.75,35)" y="0" x="0" id="text-entity-metrics-0fc12ac2-0e0d-4f13-af9c-e40c0c58ba2d-attr-1-key" class="er entityLabel">PK</text><rect height="22" width="46.78125" y="24" x="182.3125" class="er attributeBoxOdd"/><text style="dominant-baseline: middle; font-size: 10.2px;" transform="translate(187.3125,35)" y="0" x="0" id="text-entity-metrics-0fc12ac2-0e0d-4f13-af9c-e40c0c58ba2d-attr-1-comment" class="er entityLabel"/><rect height="22" width="79.609375" y="46" x="0" class="er attributeBoxEven"/><text style="dominant-baseline: middle; font-size: 10.2px;" transform="translate(5,57)" y="0" x="0" id="text-entity-metrics-0fc12ac2-0e0d-4f13-af9c-e40c0c58ba2d-attr-2-type" class="er entityLabel">MetricResource</text><rect height="22" width="81.140625" y="46" x="79.609375" class="er attributeBoxEven"/><text style="dominant-baseline: middle; font-size: 10.2px;" transform="translate(84.609375,57)" y="0" x="0" id="text-entity-metrics-0fc12ac2-0e0d-4f13-af9c-e40c0c58ba2d-attr-2-name" class="er entityLabel">resource</text><rect height="22" width="21.5625" y="46" x="160.75" class="er attributeBoxEven"/><text style="dominant-baseline: middle; font-size: 10.2px;" transform="translate(165.75,57)" y="0" x="0" id="text-entity-metrics-0fc12ac2-0e0d-4f13-af9c-e40c0c58ba2d-attr-2-key" class="er entityLabel"/><rect height="22" width="46.78125" y="46" x="182.3125" class="er attributeBoxEven"/><text style="dominant-baseline: middle; font-size: 10.2px;" transform="translate(187.3125,57)" y="0" x="0" id="text-entity-metrics-0fc12ac2-0e0d-4f13-af9c-e40c0c58ba2d-attr-2-comment" class="er entityLabel">nullable</text><rect height="22" width="79.609375" y="68" x="0" class="er attributeBoxOdd"/><text style="dominant-baseline: middle; font-size: 10.2px;" transform="translate(5,79)" y="0" x="0" id="text-entity-metrics-0fc12ac2-0e0d-4f13-af9c-e40c0c58ba2d-attr-3-type" class="er entityLabel">MetricService</text><rect height="22" width="81.140625" y="68" x="79.609375" class="er attributeBoxOdd"/><text style="dominant-baseline: middle; font-size: 10.2px;" transform="translate(84.609375,79)" y="0" x="0" id="text-entity-metrics-0fc12ac2-0e0d-4f13-af9c-e40c0c58ba2d-attr-3-name" class="er entityLabel">service</text><rect height="22" width="21.5625" y="68" x="160.75" class="er attributeBoxOdd"/><text style="dominant-baseline: middle; font-size: 10.2px;" transform="translate(165.75,79)" y="0" x="0" id="text-entity-metrics-0fc12ac2-0e0d-4f13-af9c-e40c0c58ba2d-attr-3-key" class="er entityLabel"/><rect height="22" width="46.78125" y="68" x="182.3125" class="er attributeBoxOdd"/><text style="dominant-baseline: middle; font-size: 10.2px;" transform="translate(187.3125,79)" y="0" x="0" id="text-entity-metrics-0fc12ac2-0e0d-4f13-af9c-e40c0c58ba2d-attr-3-comment" class="er entityLabel">nullable</text><rect height="22.091797828674316" width="79.609375" y="90" x="0" class="er attributeBoxEven"/><text style="dominant-baseline: middle; font-size: 10.2px;" transform="translate(5,101.04589891433716)" y="0" x="0" id="text-entity-metrics-0fc12ac2-0e0d-4f13-af9c-e40c0c58ba2d-attr-4-type" class="er entityLabel">Float</text><rect height="22.091797828674316" width="81.140625" y="90" x="79.609375" class="er attributeBoxEven"/><text style="dominant-baseline: middle; font-size: 10.2px;" transform="translate(84.609375,101.04589891433716)" y="0" x="0" id="text-entity-metrics-0fc12ac2-0e0d-4f13-af9c-e40c0c58ba2d-attr-4-name" class="er entityLabel">maximumUsage</text><rect height="22.091797828674316" width="21.5625" y="90" x="160.75" class="er attributeBoxEven"/><text style="dominant-baseline: middle; font-size: 10.2px;" transform="translate(165.75,101.04589891433716)" y="0" x="0" id="text-entity-metrics-0fc12ac2-0e0d-4f13-af9c-e40c0c58ba2d-attr-4-key" class="er entityLabel"/><rect height="22.091797828674316" width="46.78125" y="90" x="182.3125" class="er attributeBoxEven"/><text style="dominant-baseline: middle; font-size: 10.2px;" transform="translate(187.3125,101.04589891433716)" y="0" x="0" id="text-entity-metrics-0fc12ac2-0e0d-4f13-af9c-e40c0c58ba2d-attr-4-comment" class="er entityLabel"/><rect height="22" width="79.609375" y="112.09179782867432" x="0" class="er attributeBoxOdd"/><text style="dominant-baseline: middle; font-size: 10.2px;" transform="translate(5,123.09179782867432)" y="0" x="0" id="text-entity-metrics-0fc12ac2-0e0d-4f13-af9c-e40c0c58ba2d-attr-5-type" class="er entityLabel">DateTime</text><rect height="22" width="81.140625" y="112.09179782867432" x="79.609375" class="er attributeBoxOdd"/><text style="dominant-baseline: middle; font-size: 10.2px;" transform="translate(84.609375,123.09179782867432)" y="0" x="0" id="text-entity-metrics-0fc12ac2-0e0d-4f13-af9c-e40c0c58ba2d-attr-5-name" class="er entityLabel">date</text><rect height="22" width="21.5625" y="112.09179782867432" x="160.75" class="er attributeBoxOdd"/><text style="dominant-baseline: middle; font-size: 10.2px;" transform="translate(165.75,123.09179782867432)" y="0" x="0" id="text-entity-metrics-0fc12ac2-0e0d-4f13-af9c-e40c0c58ba2d-attr-5-key" class="er entityLabel"/><rect height="22" width="46.78125" y="112.09179782867432" x="182.3125" class="er attributeBoxOdd"/><text style="dominant-baseline: middle; font-size: 10.2px;" transform="translate(187.3125,123.09179782867432)" y="0" x="0" id="text-entity-metrics-0fc12ac2-0e0d-4f13-af9c-e40c0c58ba2d-attr-5-comment" class="er entityLabel"/><rect height="22.091797828674316" width="79.609375" y="134.09179782867432" x="0" class="er attributeBoxEven"/><text style="dominant-baseline: middle; font-size: 10.2px;" transform="translate(5,145.13769674301147)" y="0" x="0" id="text-entity-metrics-0fc12ac2-0e0d-4f13-af9c-e40c0c58ba2d-attr-6-type" class="er entityLabel">Periods</text><rect height="22.091797828674316" width="81.140625" y="134.09179782867432" x="79.609375" class="er attributeBoxEven"/><text style="dominant-baseline: middle; font-size: 10.2px;" transform="translate(84.609375,145.13769674301147)" y="0" x="0" id="text-entity-metrics-0fc12ac2-0e0d-4f13-af9c-e40c0c58ba2d-attr-6-name" class="er entityLabel">period</text><rect height="22.091797828674316" width="21.5625" y="134.09179782867432" x="160.75" class="er attributeBoxEven"/><text style="dominant-baseline: middle; font-size: 10.2px;" transform="translate(165.75,145.13769674301147)" y="0" x="0" id="text-entity-metrics-0fc12ac2-0e0d-4f13-af9c-e40c0c58ba2d-attr-6-key" class="er entityLabel"/><rect height="22.091797828674316" width="46.78125" y="134.09179782867432" x="182.3125" class="er attributeBoxEven"/><text style="dominant-baseline: middle; font-size: 10.2px;" transform="translate(187.3125,145.13769674301147)" y="0" x="0" id="text-entity-metrics-0fc12ac2-0e0d-4f13-af9c-e40c0c58ba2d-attr-6-comment" class="er entityLabel">nullable</text><rect height="22.091796875" width="79.609375" y="156.18359565734863" x="0" class="er attributeBoxOdd"/><text style="dominant-baseline: middle; font-size: 10.2px;" transform="translate(5,167.22949409484863)" y="0" x="0" id="text-entity-metrics-0fc12ac2-0e0d-4f13-af9c-e40c0c58ba2d-attr-7-type" class="er entityLabel">QuiverProducts</text><rect height="22.091796875" width="81.140625" y="156.18359565734863" x="79.609375" class="er attributeBoxOdd"/><text style="dominant-baseline: middle; font-size: 10.2px;" transform="translate(84.609375,167.22949409484863)" y="0" x="0" id="text-entity-metrics-0fc12ac2-0e0d-4f13-af9c-e40c0c58ba2d-attr-7-name" class="er entityLabel">product</text><rect height="22.091796875" width="21.5625" y="156.18359565734863" x="160.75" class="er attributeBoxOdd"/><text style="dominant-baseline: middle; font-size: 10.2px;" transform="translate(165.75,167.22949409484863)" y="0" x="0" id="text-entity-metrics-0fc12ac2-0e0d-4f13-af9c-e40c0c58ba2d-attr-7-key" class="er entityLabel"/><rect height="22.091796875" width="46.78125" y="156.18359565734863" x="182.3125" class="er attributeBoxOdd"/><text style="dominant-baseline: middle; font-size: 10.2px;" transform="translate(187.3125,167.22949409484863)" y="0" x="0" id="text-entity-metrics-0fc12ac2-0e0d-4f13-af9c-e40c0c58ba2d-attr-7-comment" class="er entityLabel">nullable</text></g><g transform="translate(877.046875,298.275390625 )" id="entity-instancesdetails-734847be-e879-4418-aefa-96db6c3dfec1"><rect height="289.00976848602295" width="191.09375" y="0" x="0" class="er entityBox"/><text style="dominant-baseline: middle; text-anchor: middle; font-size: 12px;" transform="translate(95.546875,12)" y="0" x="0" id="text-entity-instancesdetails-734847be-e879-4418-aefa-96db6c3dfec1" class="er entityLabel">instances_details</text><rect height="22" width="36.53125" y="24" x="0" class="er attributeBoxOdd"/><text style="dominant-baseline: middle; font-size: 10.2px;" transform="translate(5,35)" y="0" x="0" id="text-entity-instancesdetails-734847be-e879-4418-aefa-96db6c3dfec1-attr-1-type" class="er entityLabel">Int</text><rect height="22" width="86.21875" y="24" x="36.53125" class="er attributeBoxOdd"/><text style="dominant-baseline: middle; font-size: 10.2px;" transform="translate(41.53125,35)" y="0" x="0" id="text-entity-instancesdetails-734847be-e879-4418-aefa-96db6c3dfec1-attr-1-name" class="er entityLabel">id</text><rect height="22" width="21.5625" y="24" x="122.75" class="er attributeBoxOdd"/><text style="dominant-baseline: middle; font-size: 10.2px;" transform="translate(127.75,35)" y="0" x="0" id="text-entity-instancesdetails-734847be-e879-4418-aefa-96db6c3dfec1-attr-1-key" class="er entityLabel">PK</text><rect height="22" width="46.78125" y="24" x="144.3125" class="er attributeBoxOdd"/><text style="dominant-baseline: middle; font-size: 10.2px;" transform="translate(149.3125,35)" y="0" x="0" id="text-entity-instancesdetails-734847be-e879-4418-aefa-96db6c3dfec1-attr-1-comment" class="er entityLabel"/><rect height="22.091796875" width="36.53125" y="46" x="0" class="er attributeBoxEven"/><text style="dominant-baseline: middle; font-size: 10.2px;" transform="translate(5,57.0458984375)" y="0" x="0" id="text-entity-instancesdetails-734847be-e879-4418-aefa-96db6c3dfec1-attr-2-type" class="er entityLabel">String</text><rect height="22.091796875" width="86.21875" y="46" x="36.53125" class="er attributeBoxEven"/><text style="dominant-baseline: middle; font-size: 10.2px;" transform="translate(41.53125,57.0458984375)" y="0" x="0" id="text-entity-instancesdetails-734847be-e879-4418-aefa-96db6c3dfec1-attr-2-name" class="er entityLabel">label</text><rect height="22.091796875" width="21.5625" y="46" x="122.75" class="er attributeBoxEven"/><text style="dominant-baseline: middle; font-size: 10.2px;" transform="translate(127.75,57.0458984375)" y="0" x="0" id="text-entity-instancesdetails-734847be-e879-4418-aefa-96db6c3dfec1-attr-2-key" class="er entityLabel"/><rect height="22.091796875" width="46.78125" y="46" x="144.3125" class="er attributeBoxEven"/><text style="dominant-baseline: middle; font-size: 10.2px;" transform="translate(149.3125,57.0458984375)" y="0" x="0" id="text-entity-instancesdetails-734847be-e879-4418-aefa-96db6c3dfec1-attr-2-comment" class="er entityLabel">nullable</text><rect height="22.091796875" width="36.53125" y="68.091796875" x="0" class="er attributeBoxOdd"/><text style="dominant-baseline: middle; font-size: 10.2px;" transform="translate(5,79.1376953125)" y="0" x="0" id="text-entity-instancesdetails-734847be-e879-4418-aefa-96db6c3dfec1-attr-3-type" class="er entityLabel">String</text><rect height="22.091796875" width="86.21875" y="68.091796875" x="36.53125" class="er attributeBoxOdd"/><text style="dominant-baseline: middle; font-size: 10.2px;" transform="translate(41.53125,79.1376953125)" y="0" x="0" id="text-entity-instancesdetails-734847be-e879-4418-aefa-96db6c3dfec1-attr-3-name" class="er entityLabel">instanceId</text><rect height="22.091796875" width="21.5625" y="68.091796875" x="122.75" class="er attributeBoxOdd"/><text style="dominant-baseline: middle; font-size: 10.2px;" transform="translate(127.75,79.1376953125)" y="0" x="0" id="text-entity-instancesdetails-734847be-e879-4418-aefa-96db6c3dfec1-attr-3-key" class="er entityLabel"/><rect height="22.091796875" width="46.78125" y="68.091796875" x="144.3125" class="er attributeBoxOdd"/><text style="dominant-baseline: middle; font-size: 10.2px;" transform="translate(149.3125,79.1376953125)" y="0" x="0" id="text-entity-instancesdetails-734847be-e879-4418-aefa-96db6c3dfec1-attr-3-comment" class="er entityLabel">nullable</text><rect height="22.091797828674316" width="36.53125" y="90.18359375" x="0" class="er attributeBoxEven"/><text style="dominant-baseline: middle; font-size: 10.2px;" transform="translate(5,101.22949266433716)" y="0" x="0" id="text-entity-instancesdetails-734847be-e879-4418-aefa-96db6c3dfec1-attr-4-type" class="er entityLabel">String</text><rect height="22.091797828674316" width="86.21875" y="90.18359375" x="36.53125" class="er attributeBoxEven"/><text style="dominant-baseline: middle; font-size: 10.2px;" transform="translate(41.53125,101.22949266433716)" y="0" x="0" id="text-entity-instancesdetails-734847be-e879-4418-aefa-96db6c3dfec1-attr-4-name" class="er entityLabel">region</text><rect height="22.091797828674316" width="21.5625" y="90.18359375" x="122.75" class="er attributeBoxEven"/><text style="dominant-baseline: middle; font-size: 10.2px;" transform="translate(127.75,101.22949266433716)" y="0" x="0" id="text-entity-instancesdetails-734847be-e879-4418-aefa-96db6c3dfec1-attr-4-key" class="er entityLabel"/><rect height="22.091797828674316" width="46.78125" y="90.18359375" x="144.3125" class="er attributeBoxEven"/><text style="dominant-baseline: middle; font-size: 10.2px;" transform="translate(149.3125,101.22949266433716)" y="0" x="0" id="text-entity-instancesdetails-734847be-e879-4418-aefa-96db6c3dfec1-attr-4-comment" class="er entityLabel">nullable</text><rect height="22.091796875" width="36.53125" y="112.27539157867432" x="0" class="er attributeBoxOdd"/><text style="dominant-baseline: middle; font-size: 10.2px;" transform="translate(5,123.32129001617432)" y="0" x="0" id="text-entity-instancesdetails-734847be-e879-4418-aefa-96db6c3dfec1-attr-5-type" class="er entityLabel">String</text><rect height="22.091796875" width="86.21875" y="112.27539157867432" x="36.53125" class="er attributeBoxOdd"/><text style="dominant-baseline: middle; font-size: 10.2px;" transform="translate(41.53125,123.32129001617432)" y="0" x="0" id="text-entity-instancesdetails-734847be-e879-4418-aefa-96db6c3dfec1-attr-5-name" class="er entityLabel">product</text><rect height="22.091796875" width="21.5625" y="112.27539157867432" x="122.75" class="er attributeBoxOdd"/><text style="dominant-baseline: middle; font-size: 10.2px;" transform="translate(127.75,123.32129001617432)" y="0" x="0" id="text-entity-instancesdetails-734847be-e879-4418-aefa-96db6c3dfec1-attr-5-key" class="er entityLabel"/><rect height="22.091796875" width="46.78125" y="112.27539157867432" x="144.3125" class="er attributeBoxOdd"/><text style="dominant-baseline: middle; font-size: 10.2px;" transform="translate(149.3125,123.32129001617432)" y="0" x="0" id="text-entity-instancesdetails-734847be-e879-4418-aefa-96db6c3dfec1-attr-5-comment" class="er entityLabel">nullable</text><rect height="22.091796875" width="36.53125" y="134.36718845367432" x="0" class="er attributeBoxEven"/><text style="dominant-baseline: middle; font-size: 10.2px;" transform="translate(5,145.41308689117432)" y="0" x="0" id="text-entity-instancesdetails-734847be-e879-4418-aefa-96db6c3dfec1-attr-6-type" class="er entityLabel">String</text><rect height="22.091796875" width="86.21875" y="134.36718845367432" x="36.53125" class="er attributeBoxEven"/><text style="dominant-baseline: middle; font-size: 10.2px;" transform="translate(41.53125,145.41308689117432)" y="0" x="0" id="text-entity-instancesdetails-734847be-e879-4418-aefa-96db6c3dfec1-attr-6-name" class="er entityLabel">service</text><rect height="22.091796875" width="21.5625" y="134.36718845367432" x="122.75" class="er attributeBoxEven"/><text style="dominant-baseline: middle; font-size: 10.2px;" transform="translate(127.75,145.41308689117432)" y="0" x="0" id="text-entity-instancesdetails-734847be-e879-4418-aefa-96db6c3dfec1-attr-6-key" class="er entityLabel"/><rect height="22.091796875" width="46.78125" y="134.36718845367432" x="144.3125" class="er attributeBoxEven"/><text style="dominant-baseline: middle; font-size: 10.2px;" transform="translate(149.3125,145.41308689117432)" y="0" x="0" id="text-entity-instancesdetails-734847be-e879-4418-aefa-96db6c3dfec1-attr-6-comment" class="er entityLabel">nullable</text><rect height="22.091797828674316" width="36.53125" y="156.45898532867432" x="0" class="er attributeBoxOdd"/><text style="dominant-baseline: middle; font-size: 10.2px;" transform="translate(5,167.50488424301147)" y="0" x="0" id="text-entity-instancesdetails-734847be-e879-4418-aefa-96db6c3dfec1-attr-7-type" class="er entityLabel">String</text><rect height="22.091797828674316" width="86.21875" y="156.45898532867432" x="36.53125" class="er attributeBoxOdd"/><text style="dominant-baseline: middle; font-size: 10.2px;" transform="translate(41.53125,167.50488424301147)" y="0" x="0" id="text-entity-instancesdetails-734847be-e879-4418-aefa-96db6c3dfec1-attr-7-name" class="er entityLabel">instanceType</text><rect height="22.091797828674316" width="21.5625" y="156.45898532867432" x="122.75" class="er attributeBoxOdd"/><text style="dominant-baseline: middle; font-size: 10.2px;" transform="translate(127.75,167.50488424301147)" y="0" x="0" id="text-entity-instancesdetails-734847be-e879-4418-aefa-96db6c3dfec1-attr-7-key" class="er entityLabel"/><rect height="22.091797828674316" width="46.78125" y="156.45898532867432" x="144.3125" class="er attributeBoxOdd"/><text style="dominant-baseline: middle; font-size: 10.2px;" transform="translate(149.3125,167.50488424301147)" y="0" x="0" id="text-entity-instancesdetails-734847be-e879-4418-aefa-96db6c3dfec1-attr-7-comment" class="er entityLabel">nullable</text><rect height="22.091796875" width="36.53125" y="178.55078315734863" x="0" class="er attributeBoxEven"/><text style="dominant-baseline: middle; font-size: 10.2px;" transform="translate(5,189.59668159484863)" y="0" x="0" id="text-entity-instancesdetails-734847be-e879-4418-aefa-96db6c3dfec1-attr-8-type" class="er entityLabel">String</text><rect height="22.091796875" width="86.21875" y="178.55078315734863" x="36.53125" class="er attributeBoxEven"/><text style="dominant-baseline: middle; font-size: 10.2px;" transform="translate(41.53125,189.59668159484863)" y="0" x="0" id="text-entity-instancesdetails-734847be-e879-4418-aefa-96db6c3dfec1-attr-8-name" class="er entityLabel">keyName</text><rect height="22.091796875" width="21.5625" y="178.55078315734863" x="122.75" class="er attributeBoxEven"/><text style="dominant-baseline: middle; font-size: 10.2px;" transform="translate(127.75,189.59668159484863)" y="0" x="0" id="text-entity-instancesdetails-734847be-e879-4418-aefa-96db6c3dfec1-attr-8-key" class="er entityLabel"/><rect height="22.091796875" width="46.78125" y="178.55078315734863" x="144.3125" class="er attributeBoxEven"/><text style="dominant-baseline: middle; font-size: 10.2px;" transform="translate(149.3125,189.59668159484863)" y="0" x="0" id="text-entity-instancesdetails-734847be-e879-4418-aefa-96db6c3dfec1-attr-8-comment" class="er entityLabel">nullable</text><rect height="22.091796875" width="36.53125" y="200.64258003234863" x="0" class="er attributeBoxOdd"/><text style="dominant-baseline: middle; font-size: 10.2px;" transform="translate(5,211.68847846984863)" y="0" x="0" id="text-entity-instancesdetails-734847be-e879-4418-aefa-96db6c3dfec1-attr-9-type" class="er entityLabel">String</text><rect height="22.091796875" width="86.21875" y="200.64258003234863" x="36.53125" class="er attributeBoxOdd"/><text style="dominant-baseline: middle; font-size: 10.2px;" transform="translate(41.53125,211.68847846984863)" y="0" x="0" id="text-entity-instancesdetails-734847be-e879-4418-aefa-96db6c3dfec1-attr-9-name" class="er entityLabel">platform</text><rect height="22.091796875" width="21.5625" y="200.64258003234863" x="122.75" class="er attributeBoxOdd"/><text style="dominant-baseline: middle; font-size: 10.2px;" transform="translate(127.75,211.68847846984863)" y="0" x="0" id="text-entity-instancesdetails-734847be-e879-4418-aefa-96db6c3dfec1-attr-9-key" class="er entityLabel"/><rect height="22.091796875" width="46.78125" y="200.64258003234863" x="144.3125" class="er attributeBoxOdd"/><text style="dominant-baseline: middle; font-size: 10.2px;" transform="translate(149.3125,211.68847846984863)" y="0" x="0" id="text-entity-instancesdetails-734847be-e879-4418-aefa-96db6c3dfec1-attr-9-comment" class="er entityLabel">nullable</text><rect height="22.091796875" width="36.53125" y="222.73437690734863" x="0" class="er attributeBoxEven"/><text style="dominant-baseline: middle; font-size: 10.2px;" transform="translate(5,233.78027534484863)" y="0" x="0" id="text-entity-instancesdetails-734847be-e879-4418-aefa-96db6c3dfec1-attr-10-type" class="er entityLabel">Json</text><rect height="22.091796875" width="86.21875" y="222.73437690734863" x="36.53125" class="er attributeBoxEven"/><text style="dominant-baseline: middle; font-size: 10.2px;" transform="translate(41.53125,233.78027534484863)" y="0" x="0" id="text-entity-instancesdetails-734847be-e879-4418-aefa-96db6c3dfec1-attr-10-name" class="er entityLabel">tags</text><rect height="22.091796875" width="21.5625" y="222.73437690734863" x="122.75" class="er attributeBoxEven"/><text style="dominant-baseline: middle; font-size: 10.2px;" transform="translate(127.75,233.78027534484863)" y="0" x="0" id="text-entity-instancesdetails-734847be-e879-4418-aefa-96db6c3dfec1-attr-10-key" class="er entityLabel"/><rect height="22.091796875" width="46.78125" y="222.73437690734863" x="144.3125" class="er attributeBoxEven"/><text style="dominant-baseline: middle; font-size: 10.2px;" transform="translate(149.3125,233.78027534484863)" y="0" x="0" id="text-entity-instancesdetails-734847be-e879-4418-aefa-96db6c3dfec1-attr-10-comment" class="er entityLabel">nullable</text><rect height="22.091797828674316" width="36.53125" y="244.82617378234863" x="0" class="er attributeBoxOdd"/><text style="dominant-baseline: middle; font-size: 10.2px;" transform="translate(5,255.8720726966858)" y="0" x="0" id="text-entity-instancesdetails-734847be-e879-4418-aefa-96db6c3dfec1-attr-11-type" class="er entityLabel">String</text><rect height="22.091797828674316" width="86.21875" y="244.82617378234863" x="36.53125" class="er attributeBoxOdd"/><text style="dominant-baseline: middle; font-size: 10.2px;" transform="translate(41.53125,255.8720726966858)" y="0" x="0" id="text-entity-instancesdetails-734847be-e879-4418-aefa-96db6c3dfec1-attr-11-name" class="er entityLabel">privateIpAddress</text><rect height="22.091797828674316" width="21.5625" y="244.82617378234863" x="122.75" class="er attributeBoxOdd"/><text style="dominant-baseline: middle; font-size: 10.2px;" transform="translate(127.75,255.8720726966858)" y="0" x="0" id="text-entity-instancesdetails-734847be-e879-4418-aefa-96db6c3dfec1-attr-11-key" class="er entityLabel"/><rect height="22.091797828674316" width="46.78125" y="244.82617378234863" x="144.3125" class="er attributeBoxOdd"/><text style="dominant-baseline: middle; font-size: 10.2px;" transform="translate(149.3125,255.8720726966858)" y="0" x="0" id="text-entity-instancesdetails-734847be-e879-4418-aefa-96db6c3dfec1-attr-11-comment" class="er entityLabel">nullable</text><rect height="22.091796875" width="36.53125" y="266.91797161102295" x="0" class="er attributeBoxEven"/><text style="dominant-baseline: middle; font-size: 10.2px;" transform="translate(5,277.96387004852295)" y="0" x="0" id="text-entity-instancesdetails-734847be-e879-4418-aefa-96db6c3dfec1-attr-12-type" class="er entityLabel">String</text><rect height="22.091796875" width="86.21875" y="266.91797161102295" x="36.53125" class="er attributeBoxEven"/><text style="dominant-baseline: middle; font-size: 10.2px;" transform="translate(41.53125,277.96387004852295)" y="0" x="0" id="text-entity-instancesdetails-734847be-e879-4418-aefa-96db6c3dfec1-attr-12-name" class="er entityLabel">publicIpAddress</text><rect height="22.091796875" width="21.5625" y="266.91797161102295" x="122.75" class="er attributeBoxEven"/><text style="dominant-baseline: middle; font-size: 10.2px;" transform="translate(127.75,277.96387004852295)" y="0" x="0" id="text-entity-instancesdetails-734847be-e879-4418-aefa-96db6c3dfec1-attr-12-key" class="er entityLabel"/><rect height="22.091796875" width="46.78125" y="266.91797161102295" x="144.3125" class="er attributeBoxEven"/><text style="dominant-baseline: middle; font-size: 10.2px;" transform="translate(149.3125,277.96387004852295)" y="0" x="0" id="text-entity-instancesdetails-734847be-e879-4418-aefa-96db6c3dfec1-attr-12-comment" class="er entityLabel">nullable</text></g><g transform="translate(148.55859375,42.0458984375 )" id="entity-awsdashboarddetails-76a6aac2-50c1-4bcc-adf3-3616e0b5358c"><rect height="134.18359375" width="183.984375" y="0" x="0" class="er entityBox"/><text style="dominant-baseline: middle; text-anchor: middle; font-size: 12px;" transform="translate(91.9921875,12)" y="0" x="0" id="text-entity-awsdashboarddetails-76a6aac2-50c1-4bcc-adf3-3616e0b5358c" class="er entityLabel">aws_dashboard_details</text><rect height="22" width="79.609375" y="24" x="0" class="er attributeBoxOdd"/><text style="dominant-baseline: middle; font-size: 10.2px;" transform="translate(5,35)" y="0" x="0" id="text-entity-awsdashboarddetails-76a6aac2-50c1-4bcc-adf3-3616e0b5358c-attr-1-type" class="er entityLabel">Int</text><rect height="22" width="82.8125" y="24" x="79.609375" class="er attributeBoxOdd"/><text style="dominant-baseline: middle; font-size: 10.2px;" transform="translate(84.609375,35)" y="0" x="0" id="text-entity-awsdashboarddetails-76a6aac2-50c1-4bcc-adf3-3616e0b5358c-attr-1-name" class="er entityLabel">id</text><rect height="22" width="21.5625" y="24" x="162.421875" class="er attributeBoxOdd"/><text style="dominant-baseline: middle; font-size: 10.2px;" transform="translate(167.421875,35)" y="0" x="0" id="text-entity-awsdashboarddetails-76a6aac2-50c1-4bcc-adf3-3616e0b5358c-attr-1-key" class="er entityLabel">PK</text><rect height="22.091796875" width="79.609375" y="46" x="0" class="er attributeBoxEven"/><text style="dominant-baseline: middle; font-size: 10.2px;" transform="translate(5,57.0458984375)" y="0" x="0" id="text-entity-awsdashboarddetails-76a6aac2-50c1-4bcc-adf3-3616e0b5358c-attr-2-type" class="er entityLabel">String</text><rect height="22.091796875" width="82.8125" y="46" x="79.609375" class="er attributeBoxEven"/><text style="dominant-baseline: middle; font-size: 10.2px;" transform="translate(84.609375,57.0458984375)" y="0" x="0" id="text-entity-awsdashboarddetails-76a6aac2-50c1-4bcc-adf3-3616e0b5358c-attr-2-name" class="er entityLabel">dashboardName</text><rect height="22.091796875" width="21.5625" y="46" x="162.421875" class="er attributeBoxEven"/><text style="dominant-baseline: middle; font-size: 10.2px;" transform="translate(167.421875,57.0458984375)" y="0" x="0" id="text-entity-awsdashboarddetails-76a6aac2-50c1-4bcc-adf3-3616e0b5358c-attr-2-key" class="er entityLabel"/><rect height="22" width="79.609375" y="68.091796875" x="0" class="er attributeBoxOdd"/><text style="dominant-baseline: middle; font-size: 10.2px;" transform="translate(5,79.091796875)" y="0" x="0" id="text-entity-awsdashboarddetails-76a6aac2-50c1-4bcc-adf3-3616e0b5358c-attr-3-type" class="er entityLabel">MetricService</text><rect height="22" width="82.8125" y="68.091796875" x="79.609375" class="er attributeBoxOdd"/><text style="dominant-baseline: middle; font-size: 10.2px;" transform="translate(84.609375,79.091796875)" y="0" x="0" id="text-entity-awsdashboarddetails-76a6aac2-50c1-4bcc-adf3-3616e0b5358c-attr-3-name" class="er entityLabel">service</text><rect height="22" width="21.5625" y="68.091796875" x="162.421875" class="er attributeBoxOdd"/><text style="dominant-baseline: middle; font-size: 10.2px;" transform="translate(167.421875,79.091796875)" y="0" x="0" id="text-entity-awsdashboarddetails-76a6aac2-50c1-4bcc-adf3-3616e0b5358c-attr-3-key" class="er entityLabel"/><rect height="22" width="79.609375" y="90.091796875" x="0" class="er attributeBoxEven"/><text style="dominant-baseline: middle; font-size: 10.2px;" transform="translate(5,101.091796875)" y="0" x="0" id="text-entity-awsdashboarddetails-76a6aac2-50c1-4bcc-adf3-3616e0b5358c-attr-4-type" class="er entityLabel">MetricResource</text><rect height="22" width="82.8125" y="90.091796875" x="79.609375" class="er attributeBoxEven"/><text style="dominant-baseline: middle; font-size: 10.2px;" transform="translate(84.609375,101.091796875)" y="0" x="0" id="text-entity-awsdashboarddetails-76a6aac2-50c1-4bcc-adf3-3616e0b5358c-attr-4-name" class="er entityLabel">resource</text><rect height="22" width="21.5625" y="90.091796875" x="162.421875" class="er attributeBoxEven"/><text style="dominant-baseline: middle; font-size: 10.2px;" transform="translate(167.421875,101.091796875)" y="0" x="0" id="text-entity-awsdashboarddetails-76a6aac2-50c1-4bcc-adf3-3616e0b5358c-attr-4-key" class="er entityLabel"/><rect height="22.091796875" width="79.609375" y="112.091796875" x="0" class="er attributeBoxOdd"/><text style="dominant-baseline: middle; font-size: 10.2px;" transform="translate(5,123.1376953125)" y="0" x="0" id="text-entity-awsdashboarddetails-76a6aac2-50c1-4bcc-adf3-3616e0b5358c-attr-5-type" class="er entityLabel">QuiverProducts</text><rect height="22.091796875" width="82.8125" y="112.091796875" x="79.609375" class="er attributeBoxOdd"/><text style="dominant-baseline: middle; font-size: 10.2px;" transform="translate(84.609375,123.1376953125)" y="0" x="0" id="text-entity-awsdashboarddetails-76a6aac2-50c1-4bcc-adf3-3616e0b5358c-attr-5-name" class="er entityLabel">product</text><rect height="22.091796875" width="21.5625" y="112.091796875" x="162.421875" class="er attributeBoxOdd"/><text style="dominant-baseline: middle; font-size: 10.2px;" transform="translate(167.421875,123.1376953125)" y="0" x="0" id="text-entity-awsdashboarddetails-76a6aac2-50c1-4bcc-adf3-3616e0b5358c-attr-5-key" class="er entityLabel"/></g><rect height="14" width="80.25" y="272.4365539550781" x="314.76776123046875" class="er relationshipLabelBox"/><text style="text-anchor: middle; dominant-baseline: middle; font-size: 12px;" y="279.4365539550781" x="354.89276123046875" id="rel1" class="er relationshipLabel">enum:resource</text><rect height="14" width="71.890625" y="222.62124633789062" x="195.43722534179688" class="er relationshipLabelBox"/><text style="text-anchor: middle; dominant-baseline: middle; font-size: 12px;" y="229.62124633789062" x="231.38253784179688" id="rel2" class="er relationshipLabel">enum:service</text><rect height="14" width="68.46875" y="277.2152099609375" x="682.9391479492188" class="er relationshipLabelBox"/><text style="text-anchor: middle; dominant-baseline: middle; font-size: 12px;" y="284.2152099609375" x="717.1735229492188" id="rel3" class="er relationshipLabel">enum:period</text><rect height="14" width="75.765625" y="297.6493225097656" x="511.673828125" class="er relationshipLabelBox"/><text style="text-anchor: middle; dominant-baseline: middle; font-size: 12px;" y="304.6493225097656" x="549.556640625" id="rel4" class="er relationshipLabel">enum:product</text><rect height="14" width="44.953125" y="198.0847625732422" x="819.5140991210938" class="er relationshipLabelBox"/><text style="text-anchor: middle; dominant-baseline: middle; font-size: 12px;" y="205.0847625732422" x="841.9906616210938" id="rel5" class="er relationshipLabel">instance</text><rect height="14" width="71.890625" y="263.6669921875" x="19.831295013427734" class="er relationshipLabelBox"/><text style="text-anchor: middle; dominant-baseline: middle; font-size: 12px;" y="270.6669921875" x="55.776607513427734" id="rel6" class="er relationshipLabel">enum:service</text><rect height="14" width="80.25" y="287.1164855957031" x="215.82708740234375" class="er relationshipLabelBox"/><text style="text-anchor: middle; dominant-baseline: middle; font-size: 12px;" y="294.1164855957031" x="255.95208740234375" id="rel7" class="er relationshipLabel">enum:resource</text><rect height="14" width="75.765625" y="260.64093017578125" x="408.48162841796875" class="er relationshipLabelBox"/><text style="text-anchor: middle; dominant-baseline: middle; font-size: 12px;" y="267.64093017578125" x="446.36444091796875" id="rel8" class="er relationshipLabel">enum:product</text></svg>